<?xml version="1.0" encoding="iso-8859-1"?>
<!-- Generator: Adobe Illustrator 18.0.0, SVG Export Plug-In . SVG Version: 6.00 Build 0)  -->
<!DOCTYPE svg PUBLIC "-//W3C//DTD SVG 1.1//EN" "http://www.w3.org/Graphics/SVG/1.1/DTD/svg11.dtd">
<svg version="1.1" id="Capa_1" xmlns="http://www.w3.org/2000/svg" xmlns:xlink="http://www.w3.org/1999/xlink" x="0px" y="0px"
	 viewBox="0 0 472.42 472.42" style="enable-background:new 0 0 472.42 472.42;" xml:space="preserve">
<g id="XMLID_228_">
	<path id="XMLID_235_" d="M54.594,253.812l18.309-40.118l29.822-65.331c3.279-7.224,9.761-12.326,17.329-14.249
		c0.438-0.107,0.911-0.107,1.357-0.191c-0.468-0.543-0.92-1.08-1.357-1.648c-5.913-7.529-9.108-16.562-9.568-25.265
		c-0.046-0.008-4.099-0.406-4.099-0.406H59.665c-6.633,0-12.219,1.869-14.931,7.807l-43.55,95.422
		c-2.997,6.566-0.108,14.309,6.457,17.305c6.628,3.027,14.334,0.054,17.305-6.457l21.06-46.141c0,3.761-0.046,60.849-0.046,162.621
		c0,8.657,7.017,15.673,15.674,15.673c8.657,0,15.673-7.016,15.673-15.673v-46.424c-3.324-0.092-6.648-0.789-9.774-2.222
		C54.493,282.57,48.526,267.073,54.594,253.812z"/>
	<path id="XMLID_234_" d="M88.744,288.44v48.721c0,8.158,6.306,14.647,14.272,15.391v-78.637l-0.758,1.654
		C99.554,281.521,94.559,285.934,88.744,288.44z"/>
	<path id="XMLID_233_" d="M83.031,100.714c16.869,0,30.542-13.667,30.542-30.536c0-16.877-13.673-30.536-30.542-30.536
		c-16.877,0-30.552,13.659-30.552,30.536C52.479,87.047,66.154,100.714,83.031,100.714z"/>
	<path id="XMLID_232_" d="M179.026,290.661c-14.868-6.788-20.361-24.056-14.103-37.775l31.737-69.528l7.57-16.577l-6.176-13.528
		c-2.987-6.565-9.17-8.634-16.501-8.634c-113.032,0,27.242,0-51.633,0c-7.399,0-13.521,2.091-16.493,8.634L65.295,258.7
		c-3.309,7.248-0.114,15.813,7.141,19.121c7.201,3.301,15.795,0.16,19.12-7.14l23.273-50.989c0,38.518-0.046,36.971-0.046,179.72
		c0,9.569,7.752,17.321,17.321,17.321c9.568,0,17.32-7.752,17.32-17.321V296.169h12.641v103.243c0,9.569,7.752,17.321,17.321,17.321
		c9.567,0,17.32-7.752,17.32-17.321V292.3C190.877,293.596,184.68,293.235,179.026,290.661z"/>
	<path id="XMLID_231_" d="M155.745,138.113c18.639,0,33.753-15.106,33.753-33.746c0-18.652-15.114-33.751-33.753-33.751
		c-18.646,0-33.76,15.099-33.76,33.751C121.986,123.007,137.1,138.113,155.745,138.113z"/>
	<path id="XMLID_230_" d="M460.986,42.354l-86.781-10.496c-7.178-0.864-13.612,4.283-14.463,11.339l-6.266,51.856
		c-0.866,7.124,4.212,13.599,11.337,14.464l33.416,4.037l-7.516,62.142l-35.438,16.072l-25.693-56.283
		c-3.378-7.406-10.848-10.388-19.129-10.388H250.57c-8.182,0-15.72,2.941-19.122,10.388l-55.824,122.289
		c-3.837,8.402-0.13,18.339,8.282,22.176c8.441,3.848,18.34,0.123,22.177-8.28l26.975-59.087c0,7.408-0.039,74.914-0.039,207.987
		c0,11.095,8.994,20.087,20.087,20.087c11.092,0,20.086-8.992,20.086-20.087V300.858h14.647V420.57
		c0,11.095,8.993,20.087,20.086,20.087c11.094,0,20.086-8.992,20.086-20.087c0-99.091-0.045-198.105-0.045-207.995l3.784,8.288
		c3.853,8.442,13.766,12.104,22.147,8.297l32.114-14.563l-0.321,2.636c-0.667,5.501,3.263,10.51,8.771,11.178
		c0.405,0.045,0.811,0.068,1.218,0.068c5.001,0,9.338-3.738,9.959-8.841l1.784-14.754l7.569-3.433
		c8.419-3.814,12.15-13.736,8.326-22.163c-2.267-4.987-6.726-8.052-11.69-9.154l6.55-54.16l33.417,4.036
		c7.178,0.867,13.611-4.281,14.461-11.338l6.268-51.854C473.189,49.694,468.111,43.221,460.986,42.354z"/>
	<path id="XMLID_229_" d="M280.516,117.567c20.722,0,39.146-16.969,39.146-39.139c0-21.626-17.527-39.139-39.146-39.139
		c-21.628,0-39.147,17.513-39.147,39.139C241.368,100.637,259.823,117.567,280.516,117.567z"/>
</g>
<g>
</g>
<g>
</g>
<g>
</g>
<g>
</g>
<g>
</g>
<g>
</g>
<g>
</g>
<g>
</g>
<g>
</g>
<g>
</g>
<g>
</g>
<g>
</g>
<g>
</g>
<g>
</g>
<g>
</g>
</svg>
