<?xml version="1.0" encoding="windows-1252"?>
<!-- Generator: Adobe Illustrator 16.0.0, SVG Export Plug-In . SVG Version: 6.00 Build 0)  -->
<!DOCTYPE svg PUBLIC "-//W3C//DTD SVG 1.1//EN" "http://www.w3.org/Graphics/SVG/1.1/DTD/svg11.dtd">
<svg version="1.1" id="Capa_1" xmlns="http://www.w3.org/2000/svg" xmlns:xlink="http://www.w3.org/1999/xlink" x="0px" y="0px" width="222.528px" height="222.528px" viewBox="0 0 222.528 222.528" style="enable-background:new 0 0 222.528 222.528;" xml:space="preserve">
<g>
	<g>
		<path d="M210.064,33.64H161.74v-9.353c0-2.579-2.094-4.677-4.676-4.677s-4.677,2.098-4.677,4.677v9.353h-48.32    c-6.878,0-12.471,5.596-12.471,12.471V62.53l-6.491-2.165c-1.696-0.603-16.824-5.873-30.759-6.558l-1.857,3.708h-0.052    l5.252,40.879l-6.235,10.897l-6.235-10.897l5.249-40.879h-0.055l-1.854-3.715c-14.453,0.709-30.233,6.373-30.939,6.628    c-0.256,0.092-0.423,0.286-0.661,0.405c-0.512,0.243-0.98,0.518-1.428,0.864c-0.38,0.296-0.697,0.606-1.004,0.962    c-0.341,0.38-0.637,0.773-0.898,1.221c-0.262,0.45-0.454,0.91-0.627,1.409c-0.095,0.274-0.277,0.487-0.344,0.779l-12.47,56.118    c-0.929,4.201,1.714,8.36,5.916,9.298c0.575,0.128,1.142,0.188,1.696,0.188c3.574,0,6.798-2.479,7.608-6.107l11.511-51.782    c0.804-0.25,1.714-0.518,2.704-0.794v53.203l-6.202,77.138c-0.411,5.146,3.422,9.657,8.574,10.065    c0.255,0.019,0.505,0.031,0.761,0.031c4.82,0,8.915-3.709,9.308-8.604l5.605-69.715c1.16,0.512,2.433,0.804,3.772,0.804    c1.343,0,2.622-0.292,3.772-0.804l5.608,69.715c0.393,4.896,4.488,8.604,9.308,8.604c0.255,0,0.505-0.007,0.761-0.031    c5.151-0.408,8.984-4.926,8.573-10.065l-6.205-77.138V72.991c3.961,1.123,6.634,2.076,6.705,2.098    c0.03,0.012,0.061,0.006,0.1,0.012c0.031,0.013,0.055,0.037,0.085,0.049l11.429,3.809v41.976c0,6.881,5.593,12.471,12.471,12.471    h22.7l-19.905,74.324c-0.667,2.497,0.816,5.061,3.304,5.724c0.404,0.109,0.818,0.158,1.211,0.158c2.067,0,3.955-1.376,4.516-3.471    l20.563-76.741h15.941v54.382c0,2.582,2.095,4.677,4.676,4.677c2.582,0,4.677-2.095,4.677-4.677v-54.382h15.941l20.557,76.741    c0.566,2.095,2.454,3.471,4.524,3.471c0.39,0,0.804-0.049,1.212-0.158c2.484-0.663,3.977-3.232,3.301-5.724l-19.906-74.324h22.701    c6.874,0,12.47-5.59,12.47-12.471V46.11C222.535,39.235,216.932,33.64,210.064,33.64z M216.299,120.934    c0,3.435-2.795,6.235-6.235,6.235H104.067c-3.443,0-6.235-2.801-6.235-6.235V81.041l19.744,6.585    c0.822,0.268,1.65,0.399,2.472,0.399c3.258,0,6.309-2.07,7.393-5.331c0.183-0.548,0.146-1.097,0.201-1.653l46.855-21.681    c0.78-0.359,1.121-1.291,0.756-2.07c-0.359-0.779-1.285-1.126-2.07-0.758L127.3,77.762c-0.749-2.226-2.388-4.128-4.786-4.932    l-24.677-8.223V46.11c0-3.435,2.792-6.235,6.235-6.235H210.07c3.44,0,6.235,2.801,6.235,6.235v74.823H216.299z"/>
		<path d="M51.454,52.129c10.872,0,19.701-12.62,19.701-23.501c0-10.887-8.829-19.71-19.701-19.71    c-10.888,0-19.717,8.829-19.717,19.71S40.566,52.129,51.454,52.129z"/>
	</g>
</g>
<g>
</g>
<g>
</g>
<g>
</g>
<g>
</g>
<g>
</g>
<g>
</g>
<g>
</g>
<g>
</g>
<g>
</g>
<g>
</g>
<g>
</g>
<g>
</g>
<g>
</g>
<g>
</g>
<g>
</g>
</svg>